Coordinates
version=1
nRows=11
nColumns=40
inDegrees=yes

Units are S.I. units (second, meters, Newtons, ...)
Angles are in degrees.

endheader
time	pelvis_tilt	pelvis_list	pelvis_rotation	pelvis_tx	pelvis_ty	pelvis_tz	hip_flexion_r	hip_adduction_r	hip_rotation_r	knee_angle_r	knee_angle_r_beta	ankle_angle_r	subtalar_angle_r	mtp_angle_r	hip_flexion_l	hip_adduction_l	hip_rotation_l	knee_angle_l	knee_angle_l_beta	ankle_angle_l	subtalar_angle_l	mtp_angle_l	lumbar_extension	lumbar_bending	lumbar_rotation	arm_flex_r	arm_add_r	arm_rot_r	elbow_flex_r	pro_sup_r	wrist_flex_r	wrist_dev_r	arm_flex_l	arm_add_l	arm_rot_l	elbow_flex_l	pro_sup_l	wrist_flex_l	wrist_dev_l
     17.87214286	     -4.50888673	     -3.09290527	     -4.42618882	      0.85076443	      0.92178780	      0.43726386	     28.02029107	      0.86851850	    -12.71161432	     16.16316216	     16.16316216	      4.51157720	      3.01548737	      6.88792337	      1.46667398	     -3.53072238	     -9.75885995	     14.84230587	     14.84230587	     17.99549322	    -11.20812060	     -3.01643575	     -8.56893984	      6.18980605	      2.37227325	    -13.58472429	    -11.62127110	     -7.84553469	     23.73019436	     46.81392010	      0.00000000	      0.00000000	     22.15542273	    -13.44060579	     -5.10581740	     77.24243531	     47.05171925	      0.00000000	      0.00000000
     17.88428571	     -4.45522508	     -3.21810965	     -4.39487048	      0.85277812	      0.92040755	      0.43963383	     27.42115217	      1.23680839	    -12.88888250	     16.05549610	     16.05549610	      3.37082192	      2.68159913	      3.97485369	      0.87142670	     -3.90224174	    -10.24328507	     15.25163194	     15.25163194	     19.69048369	     -9.84191184	     -0.85055688	     -8.46667938	      6.22641424	      2.35170256	    -13.60258385	    -11.56399195	     -8.44057318	     24.13884135	     46.83329413	      0.00000000	      0.00000000	     21.93584661	    -13.49094175	     -4.73032931	     77.80777814	     47.11215797	      0.00000000	      0.00000000
     17.89642857	     -4.45685098	     -3.34296940	     -4.30952997	      0.85469685	      0.91900720	      0.44194426	     27.09829116	      1.50761908	    -12.99146254	     16.58270059	     16.58270059	      3.21196214	      2.39311913	      3.68047043	      0.29726434	     -4.18378505	    -10.11219978	     15.42224123	     15.42224123	     20.10323444	     -9.89031567	     -0.85622088	     -8.28928249	      6.29574186	      2.33508010	    -13.35649258	    -11.54281505	     -8.46712915	     24.19835802	     46.83415664	      0.00000000	      0.00000000	     21.81976206	    -13.33899657	     -4.62665735	     77.72255489	     47.10930161	      0.00000000	      0.00000000
     17.90857143	     -4.54077473	     -3.44215331	     -4.17954514	      0.85656097	      0.91747533	      0.44438978	     26.94129575	      1.77399792	    -12.77156243	     17.30110766	     17.30110766	      2.79904545	      1.50900627	      2.30351113	      0.08071575	     -4.54237124	    -10.07327287	     16.11227534	     16.11227534	     20.79494398	     -9.70409929	     -0.43817736	     -7.99424536	      6.30697074	      2.23957978	    -12.91026661	    -11.46077775	     -8.57026118	     24.22418547	     46.84210989	      0.00000000	      0.00000000	     21.59922403	    -13.27519972	     -4.35193676	     77.42698006	     47.10516459	      0.00000000	      0.00000000
     17.92071429	     -4.41703263	     -3.62153983	     -4.03774371	      0.85862173	      0.91662789	      0.44679242	     26.43373492	      2.05530323	    -12.78892093	     17.91036194	     17.91036194	      2.85258166	      1.28057783	      1.99187731	     -0.45821946	     -4.92862391	     -9.88540997	     16.59619811	     16.59619811	     21.05303079	     -9.87059903	     -0.46858488	     -7.96166035	      6.46081301	      2.28133189	    -12.41179486	    -11.39213828	     -8.56782107	     24.37900189	     46.83938476	      0.00000000	      0.00000000	     21.21905063	    -12.94194280	     -4.15642582	     77.24037345	     47.08883909	      0.00000000	      0.00000000
     17.93285714	     -4.38711552	     -3.79671762	     -3.79136951	      0.86033578	      0.91556731	      0.44935119	     26.11621422	      2.44701597	    -12.18254420	     18.50697931	     18.50697931	      1.80433296	     -0.57372918	     -1.58735435	     -0.22162198	     -5.54098735	     -9.86406965	     18.38586751	     18.38586751	     22.10668032	     -9.51246911	      0.74257489	     -7.82973808	      6.55995074	      2.22234769	    -11.61614651	    -11.37226036	     -8.84038524	     23.94859501	     46.87947888	      0.00000000	      0.00000000	     21.23520620	    -13.00997812	     -3.55569783	     76.18289837	     47.08355190	      0.00000000	      0.00000000
     17.94500000	     -4.11094056	     -3.92298966	     -3.58283810	      0.86224608	      0.91545426	      0.45168539	     25.54012676	      2.60954174	    -12.13428946	     19.27854497	     19.27854497	      2.16848709	     -0.78584392	     -1.93631729	     -0.47358763	     -5.94388337	     -9.55146568	     19.64775559	     19.64775559	     22.07607067	     -9.97480703	      0.58132120	     -8.03275061	      6.63222111	      2.26426112	    -10.85982676	    -11.34484995	     -8.84989136	     24.21091022	     46.87552366	      0.00000000	      0.00000000	     20.65966166	    -12.60094595	     -3.32466489	     75.82528397	     47.06119275	      0.00000000	      0.00000000
     17.95714286	     -4.21755726	     -4.11130684	     -3.20822556	      0.86346691	      0.91476946	      0.45400110	     25.55115089	      2.80768199	    -12.11516819	     20.26657785	     20.26657785	      2.60040197	     -1.57655222	     -2.47714102	      0.47222479	     -6.58326263	     -8.88901069	     22.24293531	     22.24293531	     21.93632745	    -10.87143065	      0.08905861	     -7.80309792	      6.80537734	      2.00315020	     -9.91066232	    -11.40650230	     -8.90778668	     24.43319294	     46.87820387	      0.00000000	      0.00000000	     20.32761555	    -12.60401157	     -3.13820924	     74.88229783	     47.03981472	      0.00000000	      0.00000000
     17.96928571	     -4.09287504	     -4.28496151	     -2.85444776	      0.86472602	      0.91491616	      0.45623936	     25.15865048	      3.01594488	    -12.03020405	     20.94411838	     20.94411838	      3.10424384	     -2.21325498	     -2.85388912	      1.21704191	     -7.17627372	     -8.28105896	     24.88669707	     24.88669707	     21.47136901	    -11.76890967	     -0.43039247	     -7.85323974	      6.96120645	      1.89399553	     -8.81541829	    -11.45073831	     -8.93513377	     24.60658083	     46.88173030	      0.00000000	      0.00000000	     19.88463662	    -12.35932109	     -2.85573953	     73.73159990	     47.00771710	      0.00000000	      0.00000000
     17.98142857	     -3.96079089	     -4.44311341	     -2.47207922	      0.86577407	      0.91540175	      0.45838969	     24.69173770	      3.22278201	    -11.92948664	     21.44945549	     21.44945549	      3.65397083	     -2.88444507	     -3.12538980	      2.18298969	     -7.75168366	     -7.57354308	     27.82737442	     27.82737442	     20.38492708	    -12.99456718	     -1.68819744	     -7.88793270	      7.12769783	      2.06129164	     -7.56170735	    -11.48410459	     -9.06678027	     24.22613181	     46.91249737	      0.00000000	      0.00000000	     19.92013193	    -11.87485972	     -2.29231972	     71.22875986	     46.96521103	      0.00000000	      0.00000000
     17.99357143	     -3.76074470	     -4.65748319	     -2.03374086	      0.86660476	      0.91619179	      0.46040042	     24.06689608	      3.41865053	    -12.17790852	     21.79257694	     21.79257694	      4.30419075	     -3.04773401	     -3.34185786	      3.38013340	     -8.41112807	     -6.83767115	     31.25092163	     31.25092163	     19.40486341	    -14.05019739	     -2.14761457	     -8.08731674	      7.33910889	      1.94593683	     -6.30773454	    -11.60881654	     -9.11816496	     24.64205290	     46.90897884	      0.00000000	      0.00000000	     19.30921560	    -11.61090420	     -1.99465864	     70.19452976	     46.93034612	      0.00000000	      0.00000000
